PathFileType	4	(X/Y/Z)	pose_F01_0-91.trc
DataRate	CameraRate	NumFrames	NumMarkers	Units	OrigDataRate	OrigDataStartFrame	OrigNumFrames
30	30	7	21	m	30	79	91
Frame#	Time	CHip			RHip			RKnee			RAnkle			RBigToe			RSmallToe			RHeel			LHip			LKnee			LAnkle			LBigToe			LSmallToe			LHeel			Neck			Nose			RShoulder			RElbow			RWrist			LShoulder			LElbow			LWrist			
		X1	Y1	Z1	X2	Y2	Z2	X3	Y3	Z3	X4	Y4	Z4	X5	Y5	Z5	X6	Y6	Z6	X7	Y7	Z7	X8	Y8	Z8	X9	Y9	Z9	X10	Y10	Z10	X11	Y11	Z11	X12	Y12	Z12	X13	Y13	Z13	X14	Y14	Z14	X15	Y15	Z15	X16	Y16	Z16	X17	Y17	Z17	X18	Y18	Z18	X19	Y19	Z19	X20	Y20	Z20	X21	Y21	Z21	
79	2.6333333333333333	-0.18260139801896427	1.8780869263535973	-0.5634074465464111	-0.19713041858287683	1.874803567407681	-0.49072014218906596	-0.18706888521551482	1.7432162964959699	-0.47019906356534996	-0.17787159744421663	1.6104606592289183	-0.4267559044863872	-0.20190265896247034	1.576100040698991	-0.37704111086428893	-0.19824610766317055	1.5856474537743825	-0.3592137746039709	-0.174274212315605	1.6021618736025074	-0.4388378458666331	-0.1700498592074885	1.8813557608754174	-0.6282284312444343	-0.1659286624731235	1.7371595254756467	-0.6699156292624419	-0.1529371128987929	1.586341295148141	-0.7314531654378919	-0.3028177213751393	1.4844716073056057	-1.1748893582418023	-0.2811390423596351	1.484434809666953	-1.2086180812608394	-0.1430382084511329	1.575059984513037	-0.7356458762909582	-0.17730531006688716	2.0404551932370945	-0.5861431524328712	-0.19984287355051378	2.1125152718036637	-0.5789903652483692	-0.19140174581912292	2.036030049846584	-0.48675322376737995	-0.1952725106416676	1.9491803448651424	-0.4590891635532284	-0.20473821521571284	1.868451002137365	-0.42723370367623226	-0.15958781959054047	2.0447104201704938	-0.6819062164904288	-0.15181557597317827	1.9596159883222242	-0.7056309416735603	-0.15860338232569357	1.878524012601757	-0.7099490130419753
80	2.6666666666666665	-0.18545148436818457	1.8805863266308935	-0.5648063227136753	-0.19796137365070776	1.8760236112571758	-0.4942835756211256	-0.18759073945117086	1.7455477729689037	-0.47429439002381246	-0.17904936347431982	1.6118364160397973	-0.4299510328517998	-0.20346888463814328	1.576099102349739	-0.37555277122427666	-0.19880451996784892	1.5870111576471464	-0.3609912157890932	-0.17230342998469309	1.6021147437252647	-0.4411371275865176	-0.17297008990116364	1.8839106951805011	-0.6294358024455847	-0.16689371963197344	1.7429690214789415	-0.6696921237544695	-0.15425710116657615	1.5865575061378503	-0.7259256190481979	-0.3059839765265565	1.4835938703169123	-1.173337018350791	-0.28571622773295835	1.4842520194508957	-1.201347206737386	-0.14103097479287094	1.5709621182985054	-0.7287103689625448	-0.1773288561536732	2.0392497327323507	-0.5857466629930635	-0.19991009801159249	2.1113989285286263	-0.5793267265168792	-0.19239642142208074	2.035986546257328	-0.4898409929794972	-0.19421811253589655	1.9461912281157532	-0.4638005215210905	-0.20751598573290483	1.8720227694456992	-0.42880886331233337	-0.15957613559176798	2.0446980064626854	-0.6818925205587257	-0.15383705456166355	1.9594837106065495	-0.702891001453532	-0.1594770160257321	1.8747143598483194	-0.7037871738427457
81	2.7	-0.18660411300258448	1.881012486785089	-0.5680703153603959	-0.19999396684022228	1.8775843902251195	-0.5009682380533484	-0.1879860658423582	1.7405970079942832	-0.47323044591839264	-0.1780598064679266	1.6118328407273106	-0.42666073867278337	-0.20355549939857295	1.5767135687494447	-0.3753706556980238	-0.19936293227252733	1.58837486151991	-0.36276865697421556	-0.17219292715360054	1.6018257136819591	-0.44107252357749277	-0.17395410314683205	1.8853910725647878	-0.6328717431195616	-0.1689541366282491	1.7441909165458538	-0.6677463038908429	-0.15417996622288663	1.5855932305955345	-0.726125490732392	-0.30271590184011415	1.484014272977357	-1.173961859995366	-0.28245347490954464	1.4860316037301744	-1.2017534815345914	-0.14220616868078564	1.5721481524137506	-0.7320152077927706	-0.17732840423430915	2.039213528024143	-0.5856274016500711	-0.19997265109006926	2.1103072380625783	-0.5794655434468023	-0.1923924935053136	2.0358901993416776	-0.48982433810802245	-0.197435658036109	1.9496077575185387	-0.45718013149141956	-0.20852110948878513	1.874500829787683	-0.4149036542812413	-0.1588757324870048	2.0434789644583353	-0.6790429114902744	-0.1552459117483453	1.959240495621932	-0.6974789631904458	-0.16102801568843808	1.8782524222014663	-0.7076936579262596
82	2.7333333333333334	-0.18552801726332593	1.8806003769822988	-0.5647077015493551	-0.19906846741229986	1.8775065601278056	-0.49761250106716204	-0.18792017803424757	1.7430739639118291	-0.4735839852374897	-0.17901811616391655	1.611908889372102	-0.42994298351824617	-0.20285275439493913	1.5778155303776433	-0.38094047511316526	-0.19938099884102642	1.5886131124713747	-0.3628884151142658	-0.17232807066810402	1.6024373891857773	-0.4411755328865635	-0.17421570381724247	1.883747741020892	-0.6240676824586355	-0.1689925944393727	1.7454454627999876	-0.6678186684765979	-0.1544905677056733	1.584249189491464	-0.7255378591482713	-0.3029902745286796	1.4841321848886377	-1.1747848124177303	-0.28264062523897604	1.4838066120708482	-1.201869170276996	-0.14451633855184481	1.5722055716656214	-0.7298216394617875	-0.17734747058385067	2.039170598345122	-0.5855301557895106	-0.20012026659963614	2.1079319112370536	-0.578987705849779	-0.19143603765393086	2.034564699768976	-0.48622630601240496	-0.20028163820294975	1.9503146400285973	-0.44945521037549474	-0.21242447931639122	1.8756041399912056	-0.40182814681716283	-0.15894970990454443	2.0422048597702966	-0.6784559783622832	-0.15603032465353597	1.959372190749684	-0.7005055005133362	-0.16296880023053617	1.878294657301601	-0.705360525554108
83	2.7666666666666666	-0.18761256586972425	1.8779677465643134	-0.5619964290527519	-0.20002613653871784	1.8759104471166403	-0.49180334067306464	-0.1862238332308958	1.7450905802096564	-0.47142457951003086	-0.17874443530731132	1.6129627325442717	-0.43044108844913054	-0.20164660480636226	1.5769742091534398	-0.37761084593604255	-0.1989950653437293	1.5864803140942287	-0.36305239471284945	-0.17218807813068276	1.6018961884682348	-0.4411915661039123	-0.17514700738684374	1.88125838227917	-0.6267209610927212	-0.17110056462128656	1.7435544309238533	-0.6653304991567462	-0.15496072244741563	1.5844800498006422	-0.7248175338384313	-0.30765703499336344	1.4830753619457553	-1.1674212486656745	-0.288162364293955	1.4829053733571986	-1.1976947514488008	-0.142504413036235	1.568724692336285	-0.7307328673825205	-0.17844146729858423	2.0390006372943597	-0.5802970350014316	-0.20116516337213175	2.108735875225825	-0.5736074992497608	-0.19141677954492295	2.034597615869243	-0.48603982408925844	-0.19934700497436936	1.9501943861457272	-0.44620318456008573	-0.21409004507166407	1.8776742146823702	-0.3996959050007539	-0.16092210831267656	2.043296751316924	-0.6761269222743511	-0.15613152373228223	1.9567465387519107	-0.7000881529078254	-0.1622437306389158	1.8743103052175574	-0.7015900027585706
84	2.8	-0.1898333174843184	1.8792723639956708	-0.5599915999456597	-0.20296965037177417	1.8759286170989506	-0.4928328363198118	-0.18733555707208632	1.739346205357554	-0.4694874510709727	-0.17925823930863038	1.6132515961719385	-0.4297460590248575	-0.20465118858409428	1.5769230696472838	-0.37872032636007247	-0.19942007779138146	1.5884625011545677	-0.36282779364034395	-0.17249604531837373	1.603497369998548	-0.44097806768039516	-0.17733728692684736	1.881185818113148	-0.6244377345569734	-0.17029115640662656	1.740735982320993	-0.6618094298386464	-0.154512619700582	1.584259419634617	-0.7255155357956153	-0.30429590113130117	1.4827817782322164	-1.167061710968629	-0.28488614681022245	1.484801934985757	-1.1980144257752419	-0.14203811150885162	1.5685743469455242	-0.7314762446753967	-0.1785120053507094	2.0389800436578094	-0.5801930387712106	-0.20323606021290147	2.107591006763414	-0.5715057181267964	-0.1924007722136617	2.0344513303616174	-0.4808370129695601	-0.19943815513190488	1.9514532292564244	-0.44647237524028033	-0.21792387166818838	1.8776805600782007	-0.39530724111732435	-0.16100660324525123	2.0432215993320084	-0.6760429444855391	-0.1573230922930228	1.9605376642785532	-0.6952221253329001	-0.16852961104063996	1.8805336501083003	-0.6954817867642529
85	2.8333333333333335	-0.19151910518296025	1.8774194293913442	-0.5572597002694547	-0.20092317860401268	1.872994345593958	-0.48579083688445907	-0.1889115556894	1.738946527377551	-0.46739998085738876	-0.17904375936222913	1.6115836714148295	-0.42986830292004646	-0.20453977701198311	1.5764126848916942	-0.37872279787636254	-0.1991969207472786	1.584753972425356	-0.36254227619873425	-0.17428136638906414	1.6021261999469376	-0.438915528066487	-0.17911264266597768	1.8795003432991808	-0.6217963896173477	-0.17261829701197873	1.740778661859493	-0.6632598624827537	-0.15438147226279456	1.586179244511369	-0.7259782869682554	-0.30431738495291055	1.4820712189955054	-1.1670069383333452	-0.2849089758189448	1.4840037227269622	-1.1979825855561728	-0.1446559718977592	1.5735011014654128	-0.7295793773534727	-0.17969511838978958	2.0388387436361204	-0.5748734356988405	-0.20522896418865327	2.1085684281966786	-0.5689850635368358	-0.19244526528035572	2.0345156816656775	-0.4807574879371708	-0.20041844795123193	1.9526354254636167	-0.4415767678816803	-0.21893746196651498	1.8803923153064266	-0.39903134995550144	-0.1623861125622709	2.0443618019403202	-0.6711726769744227	-0.16187413467951095	1.9604401872172574	-0.6907495560391449	-0.16923498263149866	1.8790578317932853	-0.6867043285264995
